<?xml version="1.0" encoding="UTF-8"?>
<svg version="1.1" xmlns="http://www.w3.org/2000/svg" width="500" height="500">
<path d="M0 0 C1.12148438 0.37898438 2.24296875 0.75796875 3.3984375 1.1484375 C21.98411426 7.85368166 38.61182495 18.77145714 53.390625 31.75 C55.97729805 34.07388697 55.97729805 34.07388697 59 36 C59 36.66 59 37.32 59 38 C59.66 38 60.32 38 61 38 C61 38.66 61 39.32 61 40 C61.66 40 62.32 40 63 40 C66.20475691 43.4919449 69.0613728 47.28292851 72 51 C72.59296875 51.71671875 73.1859375 52.4334375 73.796875 53.171875 C81.92259636 63.1549041 88.40793489 74.31256278 94 85.875 C94.56050049 87.01461182 94.56050049 87.01461182 95.13232422 88.17724609 C97.7022881 93.66324489 99.0498733 99.02576583 100 105 C98.68 105 97.36 105 96 105 C94.89549745 102.47931337 93.79138957 99.95845506 92.6875 97.4375 C92.2244043 96.38079102 92.2244043 96.38079102 91.75195312 95.30273438 C91.44580078 94.60341797 91.13964844 93.90410156 90.82421875 93.18359375 C90.51637451 92.48113525 90.20853027 91.77867676 89.89135742 91.05493164 C89.06749369 89.15559966 88.26704984 87.24615497 87.46875 85.3359375 C85.63915234 81.18041515 83.44403496 77.30152153 81.20703125 73.35546875 C80 71 80 71 80 69 C79.34 69 78.68 69 78 69 C77.34 67.02 76.68 65.04 76 63 C75.34 63 74.68 63 74 63 C72.62340232 61.27852222 71.32227237 59.49622345 70.0625 57.6875 C67.37763585 53.79127279 67.37763585 53.79127279 64.24609375 50.26953125 C63 49 63 49 63 47 C62.34 47 61.68 47 61 47 C58.375 44.625 58.375 44.625 56 42 C56 41.34 56 40.68 56 40 C55.34 40 54.68 40 54 40 C54 39.34 54 38.68 54 38 C53.34 38 52.68 38 52 38 C52 37.34 52 36.68 52 36 C51.42636719 35.74089844 50.85273438 35.48179688 50.26171875 35.21484375 C47.80839583 33.89708308 45.9325942 32.36739435 43.8125 30.5625 C24.84072732 15.27429778 3.65504759 5.58536233 -20 0 C-21.63328247 -0.40279175 -21.63328247 -0.40279175 -23.29956055 -0.8137207 C-33.65854912 -3.15719768 -43.60664352 -3.51574151 -54.1875 -3.4375 C-55.04684143 -3.43479095 -55.90618286 -3.43208191 -56.79156494 -3.42929077 C-69.61427565 -3.36797449 -81.62599557 -2.57205779 -94 1 C-95.47712273 1.38049581 -96.95500157 1.75806753 -98.43359375 2.1328125 C-108.16651165 4.69524 -117.051356 8.42874286 -126 13 C-126.97582031 13.495 -127.95164063 13.99 -128.95703125 14.5 C-164.16798482 33.03738328 -192.69322824 65.98788451 -205 104 C-206.9338803 110.59841561 -208.58936639 117.27087905 -210 124 C-210.18836426 124.88059082 -210.37672852 125.76118164 -210.57080078 126.66845703 C-212.28278073 135.60165714 -212.39723875 144.43765137 -212.375 153.5 C-212.37478851 154.29480774 -212.37457703 155.08961548 -212.37435913 155.9085083 C-212.34144202 168.30999187 -211.59579926 180.05408614 -208 192 C-207.81276367 192.64469238 -207.62552734 193.28938477 -207.43261719 193.95361328 C-203.85898481 205.92435593 -197.6653009 216.54700039 -191.06640625 227.07421875 C-190 229 -190 229 -190 231 C-189.34 231 -188.68 231 -188 231 C-186.3633245 233.26298453 -184.85434489 235.51267112 -183.375 237.875 C-182.95476562 238.52597656 -182.53453125 239.17695313 -182.1015625 239.84765625 C-179 244.73161019 -179 244.73161019 -179 247 C-178.34 247 -177.68 247 -177 247 C-164.86175274 264.36269905 -159.51076679 283.13517648 -159 304 C-158.51273437 303.67128906 -158.02546875 303.34257812 -157.5234375 303.00390625 C-155.99038806 301.97536945 -154.45349529 300.95255165 -152.9140625 299.93359375 C-151.36540379 298.90599849 -149.81798068 297.87643152 -148.28027344 296.83251953 C-146.44378796 295.58601611 -144.59763928 294.3548942 -142.75 293.125 C-141.86513916 292.51700562 -141.86513916 292.51700562 -140.96240234 291.89672852 C-137.5099815 289.6212915 -135.15852412 288.48409287 -131 289 C-131.1015625 290.73046875 -131.1015625 290.73046875 -132 293 C-134.10690109 294.60539928 -136.11465922 295.96203214 -138.375 297.3125 C-139.64850236 298.0988533 -140.92193901 298.88531303 -142.1953125 299.671875 C-142.8337207 300.06052734 -143.47212891 300.44917969 -144.12988281 300.84960938 C-146.87031851 302.53537086 -149.55561872 304.30436261 -152.25 306.0625 C-156.75283447 309 -156.75283447 309 -159 309 C-159.21914062 309.969375 -159.43828125 310.93875 -159.6640625 311.9375 C-163.80860594 329.68705496 -170.51315304 345.52869053 -179.75 361.25 C-180.13905518 361.919104 -180.52811035 362.58820801 -180.92895508 363.27758789 C-181.89509613 364.88768231 -182.94089699 366.44947319 -184 368 C-184.66 368 -185.32 368 -186 368 C-186 368.66 -186 369.32 -186 370 C-184.90558594 370.41572266 -184.90558594 370.41572266 -183.7890625 370.83984375 C-181.17685729 371.92643331 -178.82856548 373.15989172 -176.375 374.5625 C-155.98891911 385.74898765 -134.77757815 394.23530253 -112 399 C-109.72821375 399.53765608 -107.45731029 400.07906222 -105.1875 400.625 C-91.22323255 403.79091848 -77.25446346 404.92451768 -63 406 C-63.46792969 404.98035156 -63.93585938 403.96070313 -64.41796875 402.91015625 C-69.68649475 390.55904439 -68.56080402 376.97139765 -63.75 364.6875 C-61.36520943 359.39425565 -58.39729294 354.6924486 -55 350 C-54.34 349.01 -53.68 348.02 -53 347 C-52.34 347 -51.68 347 -51 347 C-51 346.34 -51 345.68 -51 345 C-48.91796875 343.30859375 -48.91796875 343.30859375 -46.1875 341.4375 C-45.29417969 340.81746094 -44.40085937 340.19742187 -43.48046875 339.55859375 C-41 338 -41 338 -38 337 C-39.0621875 336.46890625 -40.124375 335.9378125 -41.21875 335.390625 C-48.14583333 331.92708333 -55.07291667 328.46354167 -62 325 C-62 324.34 -62 323.68 -62 323 C-62.5887793 322.88068115 -63.17755859 322.7613623 -63.78417969 322.63842773 C-67.44174525 321.58460072 -70.19643338 319.27509451 -73.25 317.0625 C-73.8996875 316.60681641 -74.549375 316.15113281 -75.21875 315.68164062 C-76.85312724 314.50907797 -78.43195244 313.25988848 -80 312 C-80 311.34 -80 310.68 -80 310 C-81.32 309.34 -82.64 308.68 -84 308 C-84 307.01 -84 306.02 -84 305 C-79.25 305.875 -79.25 305.875 -77 307 C-77 307.66 -77 308.32 -77 309 C-76.26652344 309.26554687 -75.53304687 309.53109375 -74.77734375 309.8046875 C-72.02205452 310.99050818 -69.96089264 312.33763634 -67.5625 314.125 C-52.14544502 325.11763388 -35.2099324 332.98737345 -17 338 C-15.69675781 338.37125 -15.69675781 338.37125 -14.3671875 338.75 C-4.69387528 341.110944 8.35342209 342.15740018 17.33203125 337.27734375 C20.93437447 334.51864063 22.59675408 331.20973777 24 327 C24.068991 324.93854893 24.08467727 322.87498599 24.0625 320.8125 C24.04896484 319.18248047 24.04896484 319.18248047 24.03515625 317.51953125 C24.01775391 316.27236328 24.01775391 316.27236328 24 315 C24.88751953 314.72736328 24.88751953 314.72736328 25.79296875 314.44921875 C32.37642156 312.58908635 32.37642156 312.58908635 38 309 C38.4214117 306.20537506 38.23375398 303.85179856 38 301 C33.05 301.66 28.1 302.32 23 303 C22.67 301.68 22.34 300.36 22 299 C28.83782175 296.5579208 35.79431807 296.37977242 43 296 C43 295.34 43 294.68 43 294 C44.62553283 292.29319053 46.29115995 290.62339805 48 289 C47.2575 287.9171875 47.2575 287.9171875 46.5 286.8125 C43.85832296 281.69037503 44.77609134 275.58942357 45 270 C47.12232979 268.82823482 49.24757791 267.66245215 51.375 266.5 C52.27992188 265.99919922 52.27992188 265.99919922 53.203125 265.48828125 C57.7734375 263 57.7734375 263 60 263 C61.64391844 260.04094682 62.73865785 257.397448 63 254 C61.62485459 252.2912354 61.62485459 252.2912354 60 251 C60 250.34 60 249.68 60 249 C59.34 249 58.68 249 58 249 C48.99978835 236.86064168 43.18881063 223.5718579 44.63525391 208.25439453 C45.40999875 203.46591133 47.17545502 198.99033161 48.84472656 194.45483398 C55.16473555 176.89522014 48.18015265 158.07610582 41.90527344 141.41113281 C41.03407509 139.09075664 40.19129435 136.76159739 39.3515625 134.4296875 C38.84053489 133.05654822 38.32762681 131.68410675 37.8125 130.3125 C37.36519531 129.11238281 36.91789062 127.91226563 36.45703125 126.67578125 C35.31819744 123.89028037 35.31819744 123.89028037 33.15527344 123.30615234 C30.25896084 122.89473685 27.55176745 123.36324074 24.66748047 123.72900391 C19.47918501 124.25609598 14.27294942 124.19081196 9.0625 124.1875 C7.87986572 124.18741943 6.69723145 124.18733887 5.47875977 124.18725586 C-18.9404898 124.0297551 -18.9404898 124.0297551 -25 121 C-25 119.68 -25 118.36 -25 117 C-22.95809019 117.14238837 -20.91647955 117.28907028 -18.875 117.4375 C-17.16957031 117.55931641 -17.16957031 117.55931641 -15.4296875 117.68359375 C-12 118 -12 118 -9.17919922 118.50488281 C12.10828802 121.82012042 33.02805861 118.36220584 53 111 C53.66 111.99 54.32 112.98 55 114 C53.61769577 116.76460846 52.08867771 116.99120861 49.25 118.125 C48.38890625 118.47820312 47.5278125 118.83140625 46.640625 119.1953125 C43.92804311 120.02192769 41.81350694 120.06060042 39 120 C39.27674561 120.63800537 39.55349121 121.27601074 39.83862305 121.93334961 C45.37820113 134.77295026 50.55932139 147.43260792 54 161 C54.24363281 161.84433594 54.48726563 162.68867188 54.73828125 163.55859375 C57.87475496 175.86978648 57.57462078 189.85316182 52.19140625 201.37109375 C48.36710655 209.80963047 49.28637813 218.71367811 52.25 227.25 C54.13070882 232.13662805 56.26764617 236.54727524 59 241 C59 241.66 59 242.32 59 243 C59.66 243 60.32 243 61 243 C64.39876494 245.82205143 67.37085497 248.98324065 68.703125 253.25390625 C69.04990999 257.78575558 67.96123902 260.67704805 65.1875 264.25 C60.88915777 268.67216279 55.69986535 270.85610851 50 273 C49.64584795 277.95812866 49.63085666 280.76317165 52.3125 285 C53.421875 286.98046875 53.421875 286.98046875 54 289 C53.00503828 292.22205625 51.3178251 294.57343743 49 297 C48.0925 297.433125 47.185 297.86625 46.25 298.3125 C43.74472021 299.79451415 43.74472021 299.79451415 43.53515625 302.51171875 C43.38897578 304.47361451 43.28850594 306.43955704 43.23828125 308.40625 C43 311 43 311 41 314 C40.34 314 39.68 314 39 314 C39 314.66 39 315.32 39 316 C35.7 316.66 32.4 317.32 29 318 C29.04640625 318.7734375 29.0928125 319.546875 29.140625 320.34375 C29.37198553 327.02015393 29.46007449 332.70218665 25 338 C14.28162848 346.84168915 2.31529827 345.89551141 -11 345 C-15.13877851 344.36923657 -18.99960203 343.26586368 -22.9765625 341.97265625 C-28.67595155 340.0879554 -28.67595155 340.0879554 -34.4921875 340.75 C-42.21373345 344.80064706 -48.74824197 349.20511028 -53 357 C-53.66 357 -54.32 357 -55 357 C-55.268125 357.86625 -55.53625 358.7325 -55.8125 359.625 C-57 363 -57 363 -58.5 365.75 C-59.86227873 368.70160392 -60.49629328 371.04072477 -61.09375 374.203125 C-61.35188477 375.55132324 -61.35188477 375.55132324 -61.61523438 376.92675781 C-61.74220703 377.61092773 -61.86917969 378.29509766 -62 379 C-40.92382296 378.42296273 -40.92382296 378.42296273 -20 376 C-18.17855469 375.72736328 -18.17855469 375.72736328 -16.3203125 375.44921875 C1.23918344 372.52263609 18.76577118 367.30108645 35 360 C35.74588379 359.66742188 36.49176758 359.33484375 37.26025391 358.9921875 C65.01769064 346.51340454 96.48083743 326.84565036 114.65234375 301.71484375 C115.09707031 301.14894531 115.54179687 300.58304687 116 300 C116.66 300 117.32 300 118 300 C118.25652344 299.2678125 118.51304687 298.535625 118.77734375 297.78125 C120.05785154 294.8684016 121.51074293 292.92065884 123.5625 290.5 C130.64649639 281.83463962 136.8520124 273.0032168 141.61328125 262.8515625 C142.94667738 260.10964934 144.44187982 257.50006889 145.96704102 254.86181641 C155.70751982 237.30547244 161.5641432 217.47919724 166 198 C167.32 197.67 168.64 197.34 170 197 C170.4480365 203.6178724 168.81761414 209.35508893 167 215.6875 C166.68603271 216.7902124 166.37206543 217.8929248 166.04858398 219.02905273 C157.62299615 247.83812185 143.64833784 273.86067768 125.1875 297.45996094 C124.18352329 298.76199324 123.22670709 300.10018491 122.28125 301.4453125 C121.8584375 301.95835937 121.435625 302.47140625 121 303 C120.34 303 119.68 303 119 303 C118.7834375 303.53109375 118.566875 304.0621875 118.34375 304.609375 C116.50159748 307.88669285 114.03862231 310.50802551 111.5 313.25 C111.00113281 313.80429687 110.50226563 314.35859375 109.98828125 314.9296875 C108.7031646 316.3285008 107.35566232 317.66944254 106 319 C105.34 319 104.68 319 104 319 C104 319.66 104 320.32 104 321 C102.3203125 322.7265625 102.3203125 322.7265625 100.125 324.625 C99.04605469 325.57246094 99.04605469 325.57246094 97.9453125 326.5390625 C96 328 96 328 94 328 C94 328.66 94 329.32 94 330 C92.18229853 331.59393721 90.36795993 333.05277778 88.4375 334.5 C87.85685791 334.93997314 87.27621582 335.37994629 86.67797852 335.83325195 C48.01111613 364.79351212 2.85049314 382.36395532 -45.6875 383.6875 C-47.04363972 383.73445392 -48.39975983 383.78197792 -49.75585938 383.83007812 C-59.60286938 384.13237687 -59.60286938 384.13237687 -63 383 C-62.57438081 385.71068109 -62.13497069 388.41791363 -61.6875 391.125 C-61.56955078 391.88554687 -61.45160156 392.64609375 -61.33007812 393.4296875 C-60.54505731 398.0995549 -59.37716224 401.83164268 -57 406 C-37.63560824 406.74958936 -18.60541793 403.76559604 0.23925781 399.59960938 C2.60006335 399.08686279 4.96174888 398.61710599 7.3359375 398.171875 C26.96177202 394.17619612 46.76430903 386.11220461 64 376 C65.85197549 375.01669527 67.70605221 374.03733485 69.5625 373.0625 C79.13603897 367.81984771 88.26047057 361.76243727 96.9140625 355.1171875 C99 354 99 354 101.2734375 354.3203125 C101.84320313 354.54460937 102.41296875 354.76890625 103 355 C102.34 356.32 101.68 357.64 101 359 C100.34 359 99.68 359 99 359 C99 359.66 99 360.32 99 361 C96.73701547 362.6366755 94.48732888 364.14565511 92.125 365.625 C91.47402344 366.04523438 90.82304687 366.46546875 90.15234375 366.8984375 C85.26838981 370 85.26838981 370 83 370 C83 370.66 83 371.32 83 372 C27.59107991 402.87269138 -33.36749774 419.07836132 -97 408 C-97.83917969 407.8561084 -98.67835938 407.7122168 -99.54296875 407.56396484 C-127.70156095 402.5845805 -155.09805872 393.08400173 -180 379 C-181.02609375 378.42378906 -182.0521875 377.84757812 -183.109375 377.25390625 C-188.73725835 374.03052862 -194.26241193 370.64316174 -199.75 367.1875 C-200.37140869 366.80215088 -200.99281738 366.41680176 -201.63305664 366.01977539 C-203.12488606 365.06762913 -204.56807041 364.04005537 -206 363 C-206 362.34 -206 361.68 -206 361 C-206.804375 360.773125 -207.60875 360.54625 -208.4375 360.3125 C-209.283125 359.879375 -210.12875 359.44625 -211 359 C-211.8125 356.375 -211.8125 356.375 -212 354 C-207.7577626 354.54836821 -205.23399195 355.97399686 -201.8125 358.5 C-198.52749532 360.9495258 -198.52749532 360.9495258 -195 363 C-195 363.66 -195 364.32 -195 365 C-193.02 365.66 -191.04 366.32 -189 367 C-188.75378906 366.30132812 -188.50757813 365.60265625 -188.25390625 364.8828125 C-186.81611629 361.57723933 -184.98473769 358.83996493 -182.9375 355.875 C-180.00985657 351.66681321 -180.00985657 351.66681321 -178 347 C-179.29744141 346.64228516 -179.29744141 346.64228516 -180.62109375 346.27734375 C-186.89419082 343.90589549 -191.83237261 339.18717883 -197 335 C-198.01191406 334.195625 -199.02382812 333.39125 -200.06640625 332.5625 C-207.01326008 326.88435639 -213.44594875 320.7578275 -219.8125 314.4375 C-220.60092285 313.65834229 -221.3893457 312.87918457 -222.20166016 312.07641602 C-229.15336839 305.0873645 -235.33916904 297.57192563 -241 289.5 C-241.5775 288.6853125 -242.155 287.870625 -242.75 287.03125 C-244 285 -244 285 -244 283 C-244.66 283 -245.32 283 -246 283 C-251.859375 272.74609375 -251.859375 272.74609375 -252.9387207 270.85229492 C-253.93738754 269.10928013 -254.95064257 267.3746469 -255.96484375 265.640625 C-265.87083959 248.26744378 -272.77819329 229.68658516 -278 210.4375 C-278.22018799 209.6336084 -278.44037598 208.8297168 -278.66723633 208.00146484 C-280.12277735 202.36833205 -280.12277735 202.36833205 -279 199 C-277.68 199 -276.36 199 -275 199 C-274.69707031 200.26972656 -274.39414062 201.53945313 -274.08203125 202.84765625 C-271.52317952 213.42486298 -268.75938357 223.77578051 -265 234 C-264.77151367 234.63373535 -264.54302734 235.2674707 -264.30761719 235.92041016 C-258.42857047 252.002268 -249.89039008 267.21076217 -240.08618164 281.22265625 C-239 283 -239 283 -239 285 C-238.34 285 -237.68 285 -237 285 C-235.74966403 286.57716239 -234.57557958 288.21501322 -233.4375 289.875 C-229.99156813 294.73289312 -226.3204958 299.16001139 -222.28125 303.53125 C-219.99608573 306.00423599 -217.78189148 308.53051817 -215.5625 311.0625 C-207.43647064 320.05867413 -197.01455108 330.49272446 -186 336 C-186 336.66 -186 337.32 -186 338 C-185.29875 338.268125 -184.5975 338.53625 -183.875 338.8125 C-180.8350176 340.0681449 -177.9272226 341.50235123 -175 343 C-174.7525 342.030625 -174.505 341.06125 -174.25 340.0625 C-173.16880987 336.20782213 -171.55362156 332.70689393 -169.8046875 329.11328125 C-168.76276556 326.7538551 -168.76276556 326.7538551 -169 323 C-170.98 322.34 -172.96 321.68 -175 321 C-175 320.34 -175 319.68 -175 319 C-175.7425 318.731875 -176.485 318.46375 -177.25 318.1875 C-179.89061949 317.04723249 -181.85552844 315.90619694 -184 314 C-184 313.34 -184 312.68 -184 312 C-184.56589844 311.75121094 -185.13179688 311.50242187 -185.71484375 311.24609375 C-195.59200496 305.86008618 -206.3893306 294.03970606 -213 285 C-213 284.34 -213 283.68 -213 283 C-213.66 283 -214.32 283 -215 283 C-216.2890625 281.5390625 -216.2890625 281.5390625 -217.625 279.625 C-218.07101563 278.99851562 -218.51703125 278.37203125 -218.9765625 277.7265625 C-220 276 -220 276 -220 274 C-220.66 274 -221.32 274 -222 274 C-224.52543659 270.43119055 -226.68712006 266.62701525 -228.90332031 262.85986328 C-229.93114858 261.11676539 -230.9766804 259.38414073 -232.0234375 257.65234375 C-237.47179194 248.4461322 -241.90771764 238.8791864 -246 229 C-246.46092041 227.92250488 -246.46092041 227.92250488 -246.93115234 226.82324219 C-248.45742007 223.08237297 -249.2545046 220.85452792 -248 217 C-246.171875 217.0625 -246.171875 217.0625 -244 218 C-242.88081575 220.36135578 -242.04614397 222.53013444 -241.25 225 C-234.89703502 243.10095667 -225.97671872 259.23267166 -214.12353516 274.33374023 C-213 276 -213 276 -213 278 C-212.34 278 -211.68 278 -211 278 C-209.2734375 279.8984375 -209.2734375 279.8984375 -207.375 282.375 C-206.74335938 283.18710937 -206.11171875 283.99921875 -205.4609375 284.8359375 C-204 287 -204 287 -204 289 C-203.360625 289.268125 -202.72125 289.53625 -202.0625 289.8125 C-200 291 -200 291 -199 294 C-198.34 294 -197.68 294 -197 294 C-197 294.66 -197 295.32 -197 296 C-196.34 296 -195.68 296 -195 296 C-195 296.66 -195 297.32 -195 298 C-194.34 298 -193.68 298 -193 298 C-193 298.66 -193 299.32 -193 300 C-192.01 300.33 -191.02 300.66 -190 301 C-190 301.66 -190 302.32 -190 303 C-189.41283203 303.27328125 -188.82566406 303.5465625 -188.22070312 303.828125 C-186.06076131 304.96793599 -184.34947431 306.20043313 -182.46875 307.75 C-181.82292969 308.2759375 -181.17710937 308.801875 -180.51171875 309.34375 C-179.17057292 310.44791667 -177.82942708 311.55208333 -176.48828125 312.65625 C-175.84246094 313.1821875 -175.19664062 313.708125 -174.53125 314.25 C-173.94923828 314.72953125 -173.36722656 315.2090625 -172.76757812 315.703125 C-170.92587199 317.05438784 -169.06766734 318.03766086 -167 319 C-161.18248957 301.84997926 -165.31080138 282.15116781 -172.4765625 266.0390625 C-177.58299784 255.85237866 -183.91529561 246.59072255 -190.54150391 237.3503418 C-197.81914841 227.13996735 -204.16607101 216.59782216 -209 205 C-209.34546875 204.26394531 -209.6909375 203.52789062 -210.046875 202.76953125 C-215.49628222 190.59220204 -217.6449905 176.24339789 -218 163 C-218.02046387 162.33709961 -218.04092773 161.67419922 -218.06201172 160.99121094 C-219.12883061 122.07436327 -207.89579547 87.69064076 -185.48046875 56.09375 C-184.29321054 54.41467243 -183.14069932 52.71104898 -182 51 C-181.34 51 -180.68 51 -180 51 C-179.5359375 50.071875 -179.5359375 50.071875 -179.0625 49.125 C-178.375 47.75 -177.6875 46.375 -177 45 C-176.34 45 -175.68 45 -175 45 C-174.74089844 44.41605469 -174.48179687 43.83210938 -174.21484375 43.23046875 C-169.53808485 34.64387926 -158.13773229 25.12823268 -149 22 C-149 21.34 -149 20.68 -149 20 C-108.19547668 -11.98659667 -47.52830583 -16.30971337 0 0 Z " fill="#FFFFFF" transform="translate(312,89)"/>
<path d="M0 0 C4.69634453 0.62858765 8.96206665 1.88749805 13.375 3.5625 C14.4117688 3.95514038 14.4117688 3.95514038 15.46948242 4.35571289 C27.32500416 8.96522553 38.48933232 14.834381 49 22 C49.81597656 22.55300781 50.63195312 23.10601562 51.47265625 23.67578125 C54.00432239 25.42106615 56.50631919 27.20085548 59 29 C59.79349854 29.57016846 59.79349854 29.57016846 60.60302734 30.15185547 C62.28309303 31.36396874 63.95506135 32.58648157 65.625 33.8125 C66.64851563 34.56144531 67.67203125 35.31039062 68.7265625 36.08203125 C69.47679687 36.71496094 70.22703125 37.34789062 71 38 C71 38.66 71 39.32 71 40 C71.86963379 40.38285156 71.86963379 40.38285156 72.75683594 40.7734375 C75.23015312 42.12584777 76.89602109 43.63732524 78.890625 45.625 C79.95410156 46.68460938 79.95410156 46.68460938 81.0390625 47.765625 C81.76867187 48.50296875 82.49828125 49.2403125 83.25 50 C83.99507813 50.73734375 84.74015625 51.4746875 85.5078125 52.234375 C86.21164062 52.94078125 86.91546875 53.6471875 87.640625 54.375 C88.28547852 55.02210937 88.93033203 55.66921875 89.59472656 56.3359375 C91 58 91 58 91 60 C91.66 60 92.32 60 93 60 C97 64.47058824 97 64.47058824 97 67 C97.66 67 98.32 67 99 67 C99.33 68.32 99.66 69.64 100 71 C100.66 71 101.32 71 102 71 C103.38525391 72.765625 103.38525391 72.765625 104.9765625 75.25 C105.56107178 76.16048096 106.14558105 77.07096191 106.74780273 78.0090332 C107.36727783 78.99605225 107.98675293 79.98307129 108.625 81 C109.25801025 82.00442139 109.89102051 83.00884277 110.54321289 84.04370117 C115.58086411 92.13607775 120.10876016 100.30128824 124 109 C124.44931885 109.99362549 124.44931885 109.99362549 124.90771484 111.00732422 C132.20081146 127.33033907 137.30702018 144.32620532 140 162 C140.20496094 163.22589844 140.40992188 164.45179688 140.62109375 165.71484375 C147.85297428 215.63975691 135.53529905 266.09570581 108 308 C107.44957031 308.87398438 106.89914062 309.74796875 106.33203125 310.6484375 C105.80996094 311.46570313 105.28789062 312.28296875 104.75 313.125 C104.29109375 313.84945313 103.8321875 314.57390625 103.359375 315.3203125 C102 317 102 317 99 318 C98.34 316.68 97.68 315.36 97 314 C97.92619141 312.7625 97.92619141 312.7625 98.87109375 311.5 C107.74160404 299.47215954 115.22714217 286.80882936 121 273 C121.48082031 271.88625 121.96164062 270.7725 122.45703125 269.625 C131.52891972 247.9443349 136.44233139 224.49812726 137 201 C137.02835938 199.83597656 137.05671875 198.67195312 137.0859375 197.47265625 C137.12525827 193.97703949 137.08504904 190.4947425 137 187 C136.97164062 185.7934375 136.94328125 184.586875 136.9140625 183.34375 C135.66010916 153.96541456 127.30297202 122.21699422 112 97 C111.45859375 96.03449219 110.9171875 95.06898438 110.359375 94.07421875 C105.80576296 86.00283885 100.69067155 78.4378232 94.76171875 71.30859375 C93 69 93 69 93 67 C92.34 67 91.68 67 91 67 C89.60946976 65.42366615 88.28827212 63.78595085 87 62.125 C80.63821805 54.19064274 73.84986141 46.90188207 65.3984375 41.15625 C64.70621094 40.58390625 64.70621094 40.58390625 64 40 C64 39.34 64 38.68 64 38 C62.35 37.34 60.7 36.68 59 36 C59 35.34 59 34.68 59 34 C58.26136719 33.731875 57.52273438 33.46375 56.76171875 33.1875 C54.07543496 32.03243597 52.13366593 30.7588434 49.8125 29 C34.83460491 18.30150351 17.4178522 9.8300919 0 4 C0 2.68 0 1.36 0 0 Z " fill="#FFFFFF" transform="translate(320,49)"/>
<path d="M0 0 C-0.37243682 2.56324164 -0.66544092 3.71546845 -2.671875 5.421875 C-3.35765625 5.86015625 -4.0434375 6.2984375 -4.75 6.75 C-11.16446508 11.31369648 -14.50913539 17.27461068 -16 25 C-17.6759876 39.63496318 -11.89677192 55.63060081 -5.51269531 68.56054688 C-1.95460193 75.84820802 0.0007526 82.05498244 -2 90 C-4.44845156 94.63456903 -7.68510104 98.96366513 -12.88671875 100.58984375 C-19.48570383 101.87060795 -25.0621433 101.311497 -31 98 C-35.81395934 93.91638033 -38.19992953 89.24481129 -40.9375 83.6875 C-45.22764134 75.01826702 -49.80710368 66.51766487 -58 61 C-64.76997296 59.11945196 -70.21566878 60.50074473 -76.25 63.75 C-80.39580675 67.1420237 -82.94356146 70.74770652 -84 76 C-85.2278004 91.47028506 -76.82479194 105.0498632 -70.20800781 118.484375 C-69.16548776 120.65537877 -68.19135469 122.83369853 -67.26171875 125.0546875 C-65.55937909 129.02857018 -63.95753615 131.13330461 -59.953125 132.90625 C-55.46361742 134.53331986 -51.8080909 135.1385617 -47 135 C-46.4678559 137.08047297 -45.94968214 139.16452293 -45.4375 141.25 C-45.14746094 142.41015625 -44.85742188 143.5703125 -44.55859375 144.765625 C-44.04820036 147.72090983 -43.97003835 149.24434101 -45 152 C-46.32 151.67 -47.64 151.34 -49 151 C-49.66 147.7 -50.32 144.4 -51 141 C-53.31 140.67 -55.62 140.34 -58 140 C-58.30292969 140.78503906 -58.60585937 141.57007813 -58.91796875 142.37890625 C-61.37727119 148.54608006 -63.86339506 153.79969664 -68 159 C-68.99 158.67 -69.98 158.34 -71 158 C-70.335022 154.71289283 -69.09311062 152.12827106 -67.5 149.1875 C-64.53796754 143.38968842 -64.53796754 143.38968842 -64 137 C-65.58658054 135.32753618 -67.31104632 134.03258539 -69.15625 132.65234375 C-72.38144677 129.76196614 -73.49619878 125.97243065 -75 122 C-75.59383847 120.62050798 -76.19822139 119.24551237 -76.8125 117.875 C-77.13734375 117.13894531 -77.4621875 116.40289062 -77.796875 115.64453125 C-79.03586785 112.9211606 -80.32963738 110.22644471 -81.62548828 107.52978516 C-87.32689742 95.5594999 -92.23593054 83.37362096 -88.05078125 69.95703125 C-84.60174599 62.59111053 -79.87761057 58.85487211 -72.453125 55.76953125 C-66.12756867 53.78524049 -60.75557806 54.34333272 -54.75 57.0625 C-44.38185494 62.88548318 -39.32359541 74.04389835 -34.375 84.4375 C-31.85826472 89.59515158 -28.77960117 92.81359922 -24 96 C-18.47296949 96.44572827 -15.62579216 96.26526505 -11 93 C-10.34 93 -9.68 93 -9 93 C-6.63222393 88.41243387 -6.08260783 84.02841273 -7 79 C-8.69884509 74.16361271 -10.96797109 69.55173763 -13.13232422 64.91113281 C-19.95613341 49.88108826 -23.96001458 31.65336581 -19.02734375 15.46875 C-17.47788139 11.74532715 -15.67843641 9.0218257 -13 6 C-12.34 6 -11.68 6 -11 6 C-11 5.34 -11 4.68 -11 4 C-9.35546875 2.67578125 -9.35546875 2.67578125 -7.1875 1.3125 C-6.47980469 0.85488281 -5.77210938 0.39726562 -5.04296875 -0.07421875 C-3 -1 -3 -1 0 0 Z " fill="#FFFFFF" transform="translate(259,212)"/>
<path d="M0 0 C7.4223744 -0.38338711 13.43103657 0.93468895 20.5 3.125 C21.55445313 3.44412354 22.60890625 3.76324707 23.6953125 4.09204102 C26.80309844 5.04266623 29.90274017 6.01567522 33 7 C33.82757813 7.26119629 34.65515625 7.52239258 35.5078125 7.79150391 C45.57060409 11.01393137 54.87414692 15.17041781 64.21875 20.08447266 C65.79199609 20.89309009 67.39434998 21.64452375 69 22.38671875 C79.08129629 27.04931828 87.98608289 33.57412057 97 40 C97.66821777 40.4753418 98.33643555 40.95068359 99.02490234 41.44042969 C106.32740763 46.66881663 106.32740763 46.66881663 109 49 C109 49.66 109 50.32 109 51 C109.55171875 51.2371875 110.1034375 51.474375 110.671875 51.71875 C113.56774711 53.31245143 115.79512037 55.28917273 118.25 57.5 C119.14203125 58.2940625 120.0340625 59.088125 120.953125 59.90625 C123 62 123 62 123 64 C123.66 64 124.32 64 125 64 C126.65625 65.609375 126.65625 65.609375 128.5 67.75 C129.1084375 68.44609375 129.716875 69.1421875 130.34375 69.859375 C131.87976963 71.84460792 132.9723966 73.71872045 134 76 C134.66 76 135.32 76 136 76 C139.24186088 79.80387482 142.08662936 83.9401961 145 88 C146.10988281 89.53140625 146.10988281 89.53140625 147.2421875 91.09375 C163.53493202 114.0543437 175.94668719 139.43488688 182.9375 166.75 C183.14922852 167.57169678 183.36095703 168.39339355 183.57910156 169.23999023 C184.71935495 173.9530052 185.21385106 178.15270929 185 183 C184.01 183 183.02 183 182 183 C179.97716954 179.4600467 179.16774766 175.89428049 178.25 171.9375 C171.67182512 144.87621729 160.69427098 120.23945214 144.83691406 97.31884766 C142 93.20070635 142 93.20070635 142 91 C141.34 91 140.68 91 140 91 C138.65904353 89.2355836 137.32653737 87.46443189 136.0234375 85.671875 C127.27672747 74.12216523 117.42834724 62.33468666 105.3984375 54.15625 C104.70621094 53.58390625 104.70621094 53.58390625 104 53 C104 52.34 104 51.68 104 51 C103.48695313 50.77441406 102.97390625 50.54882812 102.4453125 50.31640625 C99.0383056 48.48228273 95.99814346 46.21385302 92.875 43.9375 C88.59313976 40.7199784 88.59313976 40.7199784 84 38 C84 37.34 84 36.68 84 36 C83.195625 35.79375 82.39125 35.5875 81.5625 35.375 C78.5714627 34.22056455 76.83789033 33.26083182 74.3125 31.4375 C52.94902986 16.74115309 26.03008931 9.43940103 1 4 C0.67 2.68 0.34 1.36 0 0 Z " fill="#FFFFFF" transform="translate(297,18)"/>
<path d="M0 0 C0.33 1.32 0.66 2.64 1 4 C-4.00840498 5.76221657 -9.02568862 7.28856493 -14.15649414 8.64282227 C-42.79108243 16.26502296 -71.49028586 29.52121685 -94 49 C-95.81081701 50.46042258 -97.6234058 51.91865025 -99.4375 53.375 C-108.53916338 60.85458476 -117.74909509 68.5174605 -124.5625 78.2265625 C-125.036875 78.81179687 -125.51125 79.39703125 -126 80 C-126.66 80 -127.32 80 -128 80 C-128.268125 80.556875 -128.53625 81.11375 -128.8125 81.6875 C-130.10899496 84.21225334 -131.42476323 86.63714484 -133 89 C-133.66 89 -134.32 89 -135 89 C-135.25394531 89.72058594 -135.50789063 90.44117187 -135.76953125 91.18359375 C-137.08829382 94.20209475 -138.68388306 96.45268069 -140.6875 99.0625 C-157.92895962 122.45279557 -167.6997358 150.14461402 -175 178 C-176.32 177.67 -177.64 177.34 -179 177 C-176.12055837 148.90062133 -161.68715441 120.08739899 -146 97 C-145.21345106 95.81646646 -144.42699883 94.63286864 -143.640625 93.44921875 C-142.82410982 92.23617519 -142.00641519 91.02392463 -141.1875 89.8125 C-140.60923462 88.9455249 -140.60923462 88.9455249 -140.01928711 88.06103516 C-139.0645024 86.67044869 -138.03794418 85.3296678 -137 84 C-136.34 84 -135.68 84 -135 84 C-134.773125 83.29875 -134.54625 82.5975 -134.3125 81.875 C-132.66158712 78.25871465 -130.7091165 75.91230024 -128 73 C-127.34 73 -126.68 73 -126 73 C-125.73574219 72.4112207 -125.47148438 71.82244141 -125.19921875 71.21582031 C-123.95631056 68.91927416 -122.64993519 67.39166834 -120.8125 65.546875 C-120.19632813 64.928125 -119.58015625 64.309375 -118.9453125 63.671875 C-118.30335937 63.03765625 -117.66140625 62.4034375 -117 61.75 C-116.03707031 60.77546875 -116.03707031 60.77546875 -115.0546875 59.78125 C-114.43851562 59.16765625 -113.82234375 58.5540625 -113.1875 57.921875 C-112.62417969 57.36081055 -112.06085938 56.79974609 -111.48046875 56.22167969 C-110 55 -110 55 -108 55 C-108 54.34 -108 53.68 -108 53 C-107.34 53 -106.68 53 -106 53 C-106 52.34 -106 51.68 -106 51 C-104.05586103 49.32930252 -102.11291545 47.78053209 -100.0625 46.25 C-99.47364014 45.80479004 -98.88478027 45.35958008 -98.27807617 44.90087891 C-85.08588224 35 -85.08588224 35 -82 35 C-82 34.34 -82 33.68 -82 33 C-79.88242819 31.51430915 -77.78836229 30.18195872 -75.5625 28.875 C-74.89452393 28.47829102 -74.22654785 28.08158203 -73.53833008 27.67285156 C-67.15890111 23.95908881 -60.55520682 20.8211332 -53.83984375 17.76953125 C-50.90640013 16.43640415 -48.07742395 14.98477121 -45.25 13.4375 C-32.69682868 7.09664896 -14.19398916 0 0 0 Z " fill="#FFFFFF" transform="translate(212,18)"/>
<path d="M0 0 C0 0.66 0 1.32 0 2 C0.99 2.33 1.98 2.66 3 3 C6.49143529 8.0431843 6.84541335 13.07271305 6 19 C4.03820084 24.55843095 0.23549472 28.38225264 -5 31 C-11.69987966 31.78954811 -16.69182205 31.35397469 -22.34375 27.58203125 C-25.41978047 24.64384177 -26.86324174 22.08333992 -27.3984375 17.84375 C-27.39070313 16.7403125 -27.38296875 15.636875 -27.375 14.5 C-27.38273437 13.3965625 -27.39046875 12.293125 -27.3984375 11.15625 C-26.77203768 6.19418082 -24.70863703 3.69288954 -21.1875 0.25 C-14.79436351 -4.26280223 -6.90546415 -3.45273207 0 0 Z M-22 8 C-23.50186547 12.50559641 -23.71589695 16.34213337 -21.8125 20.75 C-19.01657985 24.22079743 -16.29949392 25.6129167 -12.0625 26.875 C-8.13610081 27.03526119 -6.27689225 26.13710364 -3 24 C-0.15197124 20.84407624 1.82813883 18.51237829 2.3125 14.25 C1.9148114 10.11403855 0.62359816 8.19086263 -2 5 C-4.97106942 2.59102479 -6.6745346 2.03487129 -10.5 1.625 C-15.45193063 2.155564 -18.82035365 4.18442438 -22 8 Z " fill="#FFFFFF" transform="translate(41,229)"/>
<path d="M0 0 C1.22589844 -0.00515625 2.45179688 -0.0103125 3.71484375 -0.015625 C6.79991052 0.22916443 8.48596294 0.62271344 11.0625 2.25 C11.0625 2.91 11.0625 3.57 11.0625 4.25 C11.7225 4.25 12.3825 4.25 13.0625 4.25 C16.38036065 9.81926609 17.78498976 13.74759217 17.0625 20.25 C15.26799516 26.13198809 12.89388729 28.75495388 8.0625 32.25 C4.07696538 34.24276731 -0.60522536 33.76963941 -4.9375 33.25 C-10.20313137 31.18319681 -13.48266614 28.3854833 -15.9375 23.25 C-16.7676252 17.80592313 -17.28614323 11.8539841 -14.6953125 6.8515625 C-10.34317691 1.71993994 -6.79402723 -0.02851638 0 0 Z M-6.9375 5.25 C-6.9375 5.91 -6.9375 6.57 -6.9375 7.25 C-7.5975 7.25 -8.2575 7.25 -8.9375 7.25 C-11.82363017 11.75236306 -12.37183257 14.97740605 -11.58203125 20.1328125 C-10.32927651 24.24792203 -7.38696612 26.18705818 -4.0625 28.625 C-0.05439636 29.80385401 3.74647563 28.82365165 7.5 27.1875 C8.2734375 26.7234375 8.2734375 26.7234375 9.0625 26.25 C9.0625 25.59 9.0625 24.93 9.0625 24.25 C9.7225 24.25 10.3825 24.25 11.0625 24.25 C13.40978069 20.58237392 13.5055704 17.53301385 13.0625 13.25 C11.02619455 9.46828987 8.97774129 6.15471198 5.0625 4.25 C0.8242253 3.83387848 -2.8857699 3.8994233 -6.9375 5.25 Z " fill="#FFFFFF" transform="translate(256.9375,-0.25)"/>
<path d="M0 0 C0 0.66 0 1.32 0 2 C0.99 2.33 1.98 2.66 3 3 C6.74521262 8.20027834 5.75156889 15.93561658 5 22 C2.81963595 26.47399377 -0.41594915 29.14615591 -5 31 C-11.64332555 31.97999368 -16.93871535 31.41973907 -22.41015625 27.4140625 C-26.37224339 23.89004397 -27.53137119 20.30713888 -27.99609375 15.046875 C-28.00859325 8.49713776 -25.31097597 4.52126748 -21 0 C-14.66590408 -4.22273061 -6.69160428 -3.34580214 0 0 Z M-18 3 C-18 3.66 -18 4.32 -18 5 C-18.66 5 -19.32 5 -20 5 C-20 5.66 -20 6.32 -20 7 C-20.66 7 -21.32 7 -22 7 C-24.23911124 11.34651006 -24.24015003 14.2874299 -23 19 C-20.80714661 22.58384248 -18.11901276 25.78852566 -14 27 C-9.55656916 27.58686822 -6.85126837 27.2306765 -3.1875 24.75 C0.69627773 21.63252819 1.8186642 19.63202221 2.375 14.625 C1.83118059 9.368079 -0.23244031 6.47296641 -4.25 3.125 C-8.86950001 1.23520454 -13.24035537 1.41345179 -18 3 Z " fill="#FEFEFE" transform="translate(495,229)"/>
<path d="M0 0 C0 4 0 4 -1.4609375 5.484375 C-2.09257812 5.90203125 -2.72421875 6.3196875 -3.375 6.75 C-4.00148437 7.17796875 -4.62796875 7.6059375 -5.2734375 8.046875 C-7 9 -7 9 -9 9 C-9 9.66 -9 10.32 -9 11 C-10.8984375 12.7265625 -10.8984375 12.7265625 -13.375 14.625 C-14.59316406 15.57246094 -14.59316406 15.57246094 -15.8359375 16.5390625 C-18 18 -18 18 -20 18 C-20.226875 18.556875 -20.45375 19.11375 -20.6875 19.6875 C-22.37550036 22.66159588 -24.46676517 24.72008865 -27 27 C-27.66 27 -28.32 27 -29 27 C-29.3403125 27.804375 -29.3403125 27.804375 -29.6875 28.625 C-31.45570089 31.82460161 -33.53670203 34.29037223 -36 37 C-36.66 37 -37.32 37 -38 37 C-38.38671875 37.82757813 -38.38671875 37.82757813 -38.78125 38.671875 C-40.17963125 41.34314175 -41.78763305 43.76851909 -43.5 46.25 C-44.1084375 47.14203125 -44.716875 48.0340625 -45.34375 48.953125 C-46.16359375 49.96632813 -46.16359375 49.96632813 -47 51 C-47.66 51 -48.32 51 -49 51 C-49.226875 51.66 -49.45375 52.32 -49.6875 53 C-50.80398076 55.55195602 -51.9847879 57.90422488 -53.375 60.3125 C-53.77460937 61.00988281 -54.17421875 61.70726562 -54.5859375 62.42578125 C-55.28589844 63.20501953 -55.28589844 63.20501953 -56 64 C-57.32 64 -58.64 64 -60 64 C-59.49357808 59.64477147 -58.61588503 56.55760365 -56 53 C-55.34 53 -54.68 53 -54 53 C-53.73316406 52.26007813 -53.46632813 51.52015625 -53.19140625 50.7578125 C-52.02375558 48.05498832 -50.77451906 46.15933103 -48.9375 43.875 C-48.32390625 43.11058594 -47.7103125 42.34617188 -47.078125 41.55859375 C-46.04945312 40.29208984 -46.04945312 40.29208984 -45 39 C-44.21109375 38.00097656 -43.4221875 37.00195312 -42.609375 35.97265625 C-41.81015625 34.97105469 -41.0109375 33.96945313 -40.1875 32.9375 C-39.43855469 31.99777344 -38.68960938 31.05804688 -37.91796875 30.08984375 C-37.28503906 29.40019531 -36.65210937 28.71054688 -36 28 C-35.34 28 -34.68 28 -34 28 C-33.61328125 27.12601563 -33.61328125 27.12601563 -33.21875 26.234375 C-31.90165983 23.8197097 -30.44911616 22.18259823 -28.5 20.25 C-27.58734375 19.32960938 -27.58734375 19.32960938 -26.65625 18.390625 C-25 17 -25 17 -23 17 C-23 16.34 -23 15.68 -23 15 C-22.34 15 -21.68 15 -21 15 C-21 14.34 -21 13.68 -21 13 C-19.1015625 11.2734375 -19.1015625 11.2734375 -16.625 9.375 C-15.40683594 8.42753906 -15.40683594 8.42753906 -14.1640625 7.4609375 C-12 6 -12 6 -10 6 C-10 5.34 -10 4.68 -10 4 C-6.32547562 1.1605948 -4.73113419 0 0 0 Z " fill="#FFFFFF" transform="translate(142,76)"/>
<path d="M0 0 C5.34067514 4.0757784 8.10253847 8.21883569 9.375 14.8125 C10.03319199 20.84592656 8.44310902 24.76059358 5.375 29.8125 C5.045 30.1425 4.715 30.4725 4.375 30.8125 C4.67992363 36.09784292 5.61760016 39.05510016 9.375 42.8125 C11.99357695 44.60212819 11.99357695 44.60212819 14.375 45.8125 C14.045 46.8025 13.715 47.7925 13.375 48.8125 C8.50047646 48.35905595 5.81125063 47.34162227 2.375 43.8125 C-0.69486439 38.69605935 -0.85291571 35.02047692 -0.2421875 29.14453125 C0.375 26.8125 0.375 26.8125 1.90625 24.81640625 C4.53729815 21.22670491 3.88528005 17.07602407 3.375 12.8125 C1.84023242 8.45985497 1.84023242 8.45985497 -1.625 5.8125 C-1.625 5.1525 -1.625 4.4925 -1.625 3.8125 C-5.255 3.4825 -8.885 3.1525 -12.625 2.8125 C-12.625 1.4925 -12.625 0.1725 -12.625 -1.1875 C-8.09895859 -2.69618047 -4.31582678 -1.95239783 0 0 Z " fill="#FFFFFF" transform="translate(198.625,283.1875)"/>
<path d="M0 0 C-0.125 2.3125 -0.125 2.3125 -1 5 C-5.86206897 8 -5.86206897 8 -9 8 C-8.896875 9.19625 -8.79375 10.3925 -8.6875 11.625 C-8.68152501 14.98294553 -9.17332885 16.8454173 -11.25 19.5 C-14 22 -14 22 -18 22 C-17.3506938 18.49374651 -15.82074633 16.03457721 -14 13 C-13.63513096 11.67494926 -13.29573323 10.34217389 -13 9 C-15.54796309 9.71112984 -18.08679749 10.44293096 -20.625 11.1875 C-21.33785156 11.38408203 -22.05070312 11.58066406 -22.78515625 11.78320312 C-27.90715299 13.31040399 -31.14337445 15.27983966 -35 19 C-35.33 19.66 -35.66 20.32 -36 21 C-37.32 20.67 -38.64 20.34 -40 20 C-39.63014218 16.67127963 -38.25768481 14.55930071 -35.8203125 12.2890625 C-28.66693626 7.22336688 -19.47240917 5.12516059 -11.12890625 2.89453125 C-8.03066998 2.07051936 -8.03066998 2.07051936 -5.27734375 0.88671875 C-3 0 -3 0 0 0 Z " fill="#FFFFFF" transform="translate(342,290)"/>
<path d="M0 0 C0.763125 0.70125 1.52625 1.4025 2.3125 2.125 C2.3125 3.115 2.3125 4.105 2.3125 5.125 C-2.22681692 5.37718427 -2.22681692 5.37718427 -4.5 4.1328125 C-10.93243637 1.16929717 -20.1797411 2.74187702 -26.6875 5.125 C-29.02181227 6.14262032 -31.32516259 7.19463948 -33.609375 8.3203125 C-35.6875 9.125 -35.6875 9.125 -39.6875 9.125 C-40.0175 8.135 -40.3475 7.145 -40.6875 6.125 C-30.70515778 -1.63904395 -11.62480108 -7.1727496 0 0 Z " fill="#FFFFFF" transform="translate(344.6875,266.875)"/>
<path d="M0 0 C1.65 0 3.3 0 5 0 C5 0.66 5 1.32 5 2 C5.66 2 6.32 2 7 2 C7 2.66 7 3.32 7 4 C7.66 4 8.32 4 9 4 C9 4.66 9 5.32 9 6 C9.639375 6.2475 10.27875 6.495 10.9375 6.75 C13 8 13 8 13.75 10.125 C13.87375 11.053125 13.87375 11.053125 14 12 C12.328125 12.796875 12.328125 12.796875 10 13 C7.421875 11.015625 7.421875 11.015625 4.75 8.25 C3.85796875 7.34765625 2.9659375 6.4453125 2.046875 5.515625 C0 3 0 3 0 0 Z " fill="#FFFFFF" transform="translate(74,421)"/>
<path d="M0 0 C0 1.65 0 3.3 0 5 C-0.66 5 -1.32 5 -2 5 C-2 5.66 -2 6.32 -2 7 C-2.66 7 -3.32 7 -4 7 C-4 7.66 -4 8.32 -4 9 C-6.1875 11.6875 -6.1875 11.6875 -9 14 C-11.8125 13.8125 -11.8125 13.8125 -14 13 C-12.4700928 9.39438086 -10.31303068 7.0140801 -7.5625 4.25 C-6.78003906 3.45078125 -5.99757813 2.6515625 -5.19140625 1.828125 C-3 0 -3 0 0 0 Z " fill="#FFFFFF" transform="translate(408,378)"/>
<path d="M0 0 C-0.25 2.375 -0.25 2.375 -1 5 C-3.0625 6.3125 -3.0625 6.3125 -5 7 C-5 7.66 -5 8.32 -5 9 C-7.3125 11.1875 -7.3125 11.1875 -10 13 C-10.99 12.67 -11.98 12.34 -13 12 C-12.50862141 7.75360892 -11.42727645 5.9464191 -8.1875 3.1875 C-7.15689453 2.28064453 -7.15689453 2.28064453 -6.10546875 1.35546875 C-4 0 -4 0 0 0 Z " fill="#FFFFFF" transform="translate(440,421)"/>
<path d="M0 0 C0.99 0 1.98 0 3 0 C4 3 4 3 3.22265625 5.04296875 C2.83980469 5.75066406 2.45695312 6.45835937 2.0625 7.1875 C1.68222656 7.90292969 1.30195312 8.61835938 0.91015625 9.35546875 C0.60980469 9.89816406 0.30945313 10.44085938 0 11 C-1.32 10.34 -2.64 9.68 -4 9 C-2.68 6.03 -1.36 3.06 0 0 Z " fill="#FFFFFF" transform="translate(74,151)"/>
<path d="M0 0 C1.32 0.33 2.64 0.66 4 1 C4.33 3.97 4.66 6.94 5 10 C3.68 10.33 2.36 10.66 1 11 C-0.20272819 8.59454362 -0.10071472 7.05003047 -0.0625 4.375 C-0.05347656 3.55773437 -0.04445313 2.74046875 -0.03515625 1.8984375 C-0.02355469 1.27195313 -0.01195312 0.64546875 0 0 Z " fill="#FFFFFF" transform="translate(413,208)"/>
<path d="M0 0 C0.99 0 1.98 0 3 0 C3.66 2.97 4.32 5.94 5 9 C3.68 9.33 2.36 9.66 1 10 C-0.85064319 6.87703962 -1.29356154 4.62059232 -1 1 C-0.67 0.67 -0.34 0.34 0 0 Z " fill="#FFFFFF" transform="translate(56,274)"/>
<path d="M0 0 C2.97 0.33 5.94 0.66 9 1 C9 2.32 9 3.64 9 5 C2.375 5.25 2.375 5.25 -1 3 C-0.67 2.01 -0.34 1.02 0 0 Z " fill="#FFFFFF" transform="translate(293,42)"/>
<path d="M0 0 C1.32 0.33 2.64 0.66 4 1 C4.33 3.64 4.66 6.28 5 9 C3.0625 9.5625 3.0625 9.5625 1 10 C0 9 0 9 -0.09765625 6.93359375 C-0.08605469 6.10988281 -0.07445312 5.28617188 -0.0625 4.4375 C-0.05347656 3.61121094 -0.04445313 2.78492188 -0.03515625 1.93359375 C-0.02355469 1.29550781 -0.01195312 0.65742188 0 0 Z " fill="#FFFFFF" transform="translate(481,211)"/>
<path d="M0 0 C0.99 0.33 1.98 0.66 3 1 C2.67 4.3 2.34 7.6 2 11 C0.68 10.67 -0.64 10.34 -2 10 C-1.85950482 8.52031676 -1.71245174 7.04125484 -1.5625 5.5625 C-1.48128906 4.73878906 -1.40007813 3.91507813 -1.31640625 3.06640625 C-1 1 -1 1 0 0 Z " fill="#FFFFFF" transform="translate(31,207)"/>
<path d="M0 0 C0.99 0 1.98 0 3 0 C4.1577506 3.47325181 4.06866652 6.36067448 4 10 C2.68 10 1.36 10 0 10 C-0.19412181 8.52168779 -0.38012131 7.04230684 -0.5625 5.5625 C-0.66691406 4.73878906 -0.77132813 3.91507812 -0.87890625 3.06640625 C-0.91886719 2.38449219 -0.95882813 1.70257813 -1 1 C-0.67 0.67 -0.34 0.34 0 0 Z " fill="#FFFFFF" transform="translate(30,268)"/>
<path d="M0 0 C0.5625 1.9375 0.5625 1.9375 1 4 C0 5 0 5 -3.5625 5.0625 C-4.696875 5.041875 -5.83125 5.02125 -7 5 C-7 3.68 -7 2.36 -7 1 C-4.53721199 -0.231394 -2.7204945 -0.07159196 0 0 Z " fill="#FFFFFF" transform="translate(232,15)"/>
<path d="M0 0 C1.65 0.33 3.3 0.66 5 1 C3.84826645 3.46800047 2.95216435 5.04783565 1 7 C-1.125 6.625 -1.125 6.625 -3 6 C-2.67 4.68 -2.34 3.36 -2 2 C-1.34 2 -0.68 2 0 2 C0 1.34 0 0.68 0 0 Z " fill="#FFFFFF" transform="translate(377,191)"/>
<path d="M0 0 C3.375 -0.1875 3.375 -0.1875 7 0 C7.66 0.99 8.32 1.98 9 3 C8.67 3.66 8.34 4.32 8 5 C5.36 4.67 2.72 4.34 0 4 C0 2.68 0 1.36 0 0 Z " fill="#FFFFFF" transform="translate(280,15)"/>
<path d="M0 0 C1.32 0 2.64 0 4 0 C3.25 4.75 3.25 4.75 1 7 C-1.125 6.625 -1.125 6.625 -3 6 C-2.42655063 3.13275314 -2.1385485 2.1385485 0 0 Z " fill="#FFFFFF" transform="translate(295,278)"/>
<path d="M0 0 C2.475 0.495 2.475 0.495 5 1 C4.34 3.31 3.68 5.62 3 8 C2.01 8 1.02 8 0 8 C0 5.36 0 2.72 0 0 Z " fill="#FFFFFF" transform="translate(481,267)"/>
<path d="M0 0 C1.98 0 3.96 0 6 0 C6 1.32 6 2.64 6 4 C3.69 4.33 1.38 4.66 -1 5 C-0.67 3.35 -0.34 1.7 0 0 Z " fill="#FFFFFF" transform="translate(267,207)"/>
<path d="M0 0 C1.9375 0.75 1.9375 0.75 4 2 C4.75 4.125 4.75 4.125 5 6 C3.68 6.33 2.36 6.66 1 7 C-1 4 -1 4 -0.625 1.8125 C-0.41875 1.214375 -0.2125 0.61625 0 0 Z " fill="#FFFFFF" transform="translate(218,381)"/>
<path d="M0 0 C1.32 0.33 2.64 0.66 4 1 C3.67 2.65 3.34 4.3 3 6 C2.01 5.67 1.02 5.34 0 5 C0 3.35 0 1.7 0 0 Z " fill="#FFFFFF" transform="translate(179,289)"/>
</svg>
